v 0.0 2.5 0.0
v 0.0 2.5 0.0
v 0.0 2.5 0.0
v 0.0 2.5 0.0
v 0.0 2.5 0.0
v -0.0 2.5 0.0
v -0.0 2.5 0.0
v -0.0 2.5 0.0
v -0.0 2.5 0.0
v -0.0 2.5 -0.0
v -0.0 2.5 -0.0
v -0.0 2.5 -0.0
v -0.0 2.5 -0.0
v 0.0 2.5 -0.0
v 0.0 2.5 -0.0
v 0.0 2.5 -0.0
v 0.19509032201612825 2.4807852804032304 0.0
v 0.18023995550173696 2.4807852804032304 0.0746578340503426
v 0.1379496896414715 2.4807852804032304 0.13794968964147147
v 0.07465783405034261 2.4807852804032304 0.18023995550173696
v 1.1945836920083893e-17 2.4807852804032304 0.19509032201612825
v -0.07465783405034258 2.4807852804032304 0.18023995550173696
v -0.13794968964147147 2.4807852804032304 0.1379496896414715
v -0.18023995550173696 2.4807852804032304 0.07465783405034263
v -0.19509032201612825 2.4807852804032304 2.3891673840167787e-17
v -0.18023995550173696 2.4807852804032304 -0.07465783405034258
v -0.13794968964147153 2.4807852804032304 -0.13794968964147147
v -0.07465783405034271 2.4807852804032304 -0.1802399555017369
v -3.583751076025168e-17 2.4807852804032304 -0.19509032201612825
v 0.07465783405034264 2.4807852804032304 -0.18023995550173694
v 0.13794968964147145 2.4807852804032304 -0.13794968964147153
v 0.1802399555017369 2.4807852804032304 -0.07465783405034272
v 0.3826834323650898 2.423879532511287 0.0
v 0.3535533905932738 2.423879532511287 0.14644660940672624
v 0.2705980500730985 2.423879532511287 0.27059805007309845
v 0.14644660940672627 2.423879532511287 0.3535533905932738
v 2.3432602026631493e-17 2.423879532511287 0.3826834323650898
v -0.1464466094067262 2.423879532511287 0.3535533905932738
v -0.27059805007309845 2.423879532511287 0.2705980500730985
v -0.3535533905932738 2.423879532511287 0.1464466094067263
v -0.3826834323650898 2.423879532511287 4.6865204053262986e-17
v -0.3535533905932738 2.423879532511287 -0.1464466094067262
v -0.27059805007309856 2.423879532511287 -0.27059805007309845
v -0.14644660940672646 2.423879532511287 -0.3535533905932737
v -7.029780607989448e-17 2.423879532511287 -0.3826834323650898
v 0.14644660940672632 2.423879532511287 -0.35355339059327373
v 0.27059805007309845 2.423879532511287 -0.27059805007309856
v 0.3535533905932737 2.423879532511287 -0.1464466094067265
v 0.5555702330196022 2.3314696123025453 0.0
v 0.5132799671593367 2.3314696123025453 0.2126075236918141
v 0.39284747919355106 2.3314696123025453 0.392847479193551
v 0.21260752369181413 2.3314696123025453 0.5132799671593367
v 3.401886537845025e-17 2.3314696123025453 0.5555702330196022
v -0.21260752369181407 2.3314696123025453 0.5132799671593367
v -0.392847479193551 2.3314696123025453 0.39284747919355106
v -0.5132799671593367 2.3314696123025453 0.21260752369181415
v -0.5555702330196022 2.3314696123025453 6.80377307569005e-17
v -0.5132799671593368 2.3314696123025453 -0.21260752369181404
v -0.3928474791935511 2.3314696123025453 -0.392847479193551
v -0.2126075236918144 2.3314696123025453 -0.5132799671593365
v -1.0205659613535074e-16 2.3314696123025453 -0.5555702330196022
v 0.2126075236918142 2.3314696123025453 -0.5132799671593367
v 0.39284747919355095 2.3314696123025453 -0.3928474791935511
v 0.5132799671593365 2.3314696123025453 -0.21260752369181443
v 0.7071067811865475 2.2071067811865475 0.0
v 0.6532814824381882 2.2071067811865475 0.27059805007309845
v 0.5 2.2071067811865475 0.4999999999999999
v 0.2705980500730985 2.2071067811865475 0.6532814824381882
v 4.329780281177466e-17 2.2071067811865475 0.7071067811865475
v -0.27059805007309845 2.2071067811865475 0.6532814824381882
v -0.4999999999999999 2.2071067811865475 0.5
v -0.6532814824381882 2.2071067811865475 0.27059805007309856
v -0.7071067811865475 2.2071067811865475 8.659560562354932e-17
v -0.6532814824381883 2.2071067811865475 -0.2705980500730984
v -0.5000000000000001 2.2071067811865475 -0.4999999999999999
v -0.2705980500730989 2.2071067811865475 -0.6532814824381881
v -1.2989340843532398e-16 2.2071067811865475 -0.7071067811865475
v 0.2705980500730986 2.2071067811865475 -0.6532814824381881
v 0.49999999999999983 2.2071067811865475 -0.5000000000000001
v 0.6532814824381881 2.2071067811865475 -0.2705980500730989
v 0.8314696123025452 2.055570233019602 0.0
v 0.7681777567114163 2.055570233019602 0.31818964514320847
v 0.5879378012096794 2.055570233019602 0.5879378012096793
v 0.3181896451432085 2.055570233019602 0.7681777567114163
v 5.091282996473014e-17 2.055570233019602 0.8314696123025452
v -0.31818964514320847 2.055570233019602 0.7681777567114163
v -0.5879378012096793 2.055570233019602 0.5879378012096794
v -0.7681777567114163 2.055570233019602 0.3181896451432086
v -0.8314696123025452 2.055570233019602 1.0182565992946028e-16
v -0.7681777567114164 2.055570233019602 -0.3181896451432084
v -0.5879378012096795 2.055570233019602 -0.5879378012096793
v -0.31818964514320897 2.055570233019602 -0.7681777567114161
v -1.527384898941904e-16 2.055570233019602 -0.8314696123025452
v 0.3181896451432087 2.055570233019602 -0.7681777567114162
v 0.5879378012096792 2.055570233019602 -0.5879378012096795
v 0.7681777567114161 2.055570233019602 -0.318189645143209
v 0.9238795325112867 1.8826834323650898 0.0
v 0.8535533905932737 1.8826834323650898 0.3535533905932738
v 0.6532814824381883 1.8826834323650898 0.6532814824381882
v 0.35355339059327384 1.8826834323650898 0.8535533905932737
v 5.657130561438501e-17 1.8826834323650898 0.9238795325112867
v -0.35355339059327373 1.8826834323650898 0.8535533905932737
v -0.6532814824381882 1.8826834323650898 0.6532814824381883
v -0.8535533905932737 1.8826834323650898 0.35355339059327384
v -0.9238795325112867 1.8826834323650898 1.1314261122877003e-16
v -0.8535533905932738 1.8826834323650898 -0.3535533905932737
v -0.6532814824381884 1.8826834323650898 -0.6532814824381882
v -0.3535533905932743 1.8826834323650898 -0.8535533905932735
v -1.6971391684315505e-16 1.8826834323650898 -0.9238795325112867
v 0.35355339059327395 1.8826834323650898 -0.8535533905932736
v 0.6532814824381881 1.8826834323650898 -0.6532814824381884
v 0.8535533905932735 1.8826834323650898 -0.35355339059327434
v 0.9807852804032304 1.6950903220161284 0.0
v 0.9061274463528878 1.6950903220161284 0.37533027751786524
v 0.6935199226610738 1.6950903220161284 0.6935199226610737
v 0.3753302775178653 1.6950903220161284 0.9061274463528878
v 6.005577771483278e-17 1.6950903220161284 0.9807852804032304
v -0.3753302775178652 1.6950903220161284 0.9061274463528878
v -0.6935199226610737 1.6950903220161284 0.6935199226610738
v -0.9061274463528878 1.6950903220161284 0.37533027751786535
v -0.9807852804032304 1.6950903220161284 1.2011155542966555e-16
v -0.9061274463528879 1.6950903220161284 -0.37533027751786513
v -0.6935199226610739 1.6950903220161284 -0.6935199226610737
v -0.3753302775178658 1.6950903220161284 -0.9061274463528876
v -1.8016733314449831e-16 1.6950903220161284 -0.9807852804032304
v 0.37533027751786546 1.6950903220161284 -0.9061274463528877
v 0.6935199226610735 1.6950903220161284 -0.6935199226610739
v 0.9061274463528876 1.6950903220161284 -0.37533027751786585
v 1.0 1.5 0.0
v 0.9238795325112867 1.5 0.3826834323650898
v 0.7071067811865476 1.5 0.7071067811865475
v 0.38268343236508984 1.5 0.9238795325112867
v 6.123233995736766e-17 1.5 1.0
v -0.3826834323650897 1.5 0.9238795325112867
v -0.7071067811865475 1.5 0.7071067811865476
v -0.9238795325112867 1.5 0.3826834323650899
v -1.0 1.5 1.2246467991473532e-16
v -0.9238795325112868 1.5 -0.38268343236508967
v -0.7071067811865477 1.5 -0.7071067811865475
v -0.38268343236509034 1.5 -0.9238795325112865
v -1.8369701987210297e-16 1.5 -1.0
v 0.38268343236509 1.5 -0.9238795325112866
v 0.7071067811865474 1.5 -0.7071067811865477
v 0.9238795325112865 1.5 -0.3826834323650904
v 0.9807852804032304 1.3049096779838718 0.0
v 0.9061274463528878 1.3049096779838718 0.37533027751786524
v 0.6935199226610738 1.3049096779838718 0.6935199226610737
v 0.3753302775178653 1.3049096779838718 0.9061274463528878
v 6.005577771483278e-17 1.3049096779838718 0.9807852804032304
v -0.3753302775178652 1.3049096779838718 0.9061274463528878
v -0.6935199226610737 1.3049096779838718 0.6935199226610738
v -0.9061274463528878 1.3049096779838718 0.37533027751786535
v -0.9807852804032304 1.3049096779838718 1.2011155542966555e-16
v -0.9061274463528879 1.3049096779838718 -0.37533027751786513
v -0.6935199226610739 1.3049096779838718 -0.6935199226610737
v -0.3753302775178658 1.3049096779838718 -0.9061274463528876
v -1.8016733314449831e-16 1.3049096779838718 -0.9807852804032304
v 0.37533027751786546 1.3049096779838718 -0.9061274463528877
v 0.6935199226610735 1.3049096779838718 -0.6935199226610739
v 0.9061274463528876 1.3049096779838718 -0.37533027751786585
v 0.9238795325112867 1.1173165676349104 0.0
v 0.8535533905932737 1.1173165676349104 0.3535533905932738
v 0.6532814824381883 1.1173165676349104 0.6532814824381882
v 0.35355339059327384 1.1173165676349104 0.8535533905932737
v 5.657130561438501e-17 1.1173165676349104 0.9238795325112867
v -0.35355339059327373 1.1173165676349104 0.8535533905932737
v -0.6532814824381882 1.1173165676349104 0.6532814824381883
v -0.8535533905932737 1.1173165676349104 0.35355339059327384
v -0.9238795325112867 1.1173165676349104 1.1314261122877003e-16
v -0.8535533905932738 1.1173165676349104 -0.3535533905932737
v -0.6532814824381884 1.1173165676349104 -0.6532814824381882
v -0.3535533905932743 1.1173165676349104 -0.8535533905932735
v -1.6971391684315505e-16 1.1173165676349104 -0.9238795325112867
v 0.35355339059327395 1.1173165676349104 -0.8535533905932736
v 0.6532814824381881 1.1173165676349104 -0.6532814824381884
v 0.8535533905932735 1.1173165676349104 -0.35355339059327434
v 0.8314696123025455 0.944429766980398 0.0
v 0.7681777567114165 0.944429766980398 0.3181896451432086
v 0.5879378012096795 0.944429766980398 0.5879378012096794
v 0.31818964514320863 0.944429766980398 0.7681777567114165
v 5.091282996473015e-17 0.944429766980398 0.8314696123025455
v -0.3181896451432085 0.944429766980398 0.7681777567114165
v -0.5879378012096794 0.944429766980398 0.5879378012096795
v -0.7681777567114165 0.944429766980398 0.3181896451432087
v -0.8314696123025455 0.944429766980398 1.018256599294603e-16
v -0.7681777567114166 0.944429766980398 -0.31818964514320847
v -0.5879378012096796 0.944429766980398 -0.5879378012096794
v -0.318189645143209 0.944429766980398 -0.7681777567114163
v -1.5273848989419045e-16 0.944429766980398 -0.8314696123025455
v 0.31818964514320874 0.944429766980398 -0.7681777567114164
v 0.5879378012096794 0.944429766980398 -0.5879378012096796
v 0.7681777567114163 0.944429766980398 -0.3181896451432091
v 0.7071067811865476 0.7928932188134525 0.0
v 0.6532814824381883 0.7928932188134525 0.2705980500730985
v 0.5000000000000001 0.7928932188134525 0.5
v 0.27059805007309856 0.7928932188134525 0.6532814824381883
v 4.329780281177467e-17 0.7928932188134525 0.7071067811865476
v -0.2705980500730985 0.7928932188134525 0.6532814824381883
v -0.5 0.7928932188134525 0.5000000000000001
v -0.6532814824381883 0.7928932188134525 0.2705980500730986
v -0.7071067811865476 0.7928932188134525 8.659560562354934e-17
v -0.6532814824381884 0.7928932188134525 -0.27059805007309845
v -0.5000000000000001 0.7928932188134525 -0.5
v -0.2705980500730989 0.7928932188134525 -0.6532814824381882
v -1.29893408435324e-16 0.7928932188134525 -0.7071067811865476
v 0.2705980500730987 0.7928932188134525 -0.6532814824381882
v 0.4999999999999999 0.7928932188134525 -0.5000000000000001
v 0.6532814824381882 0.7928932188134525 -0.27059805007309895
v 0.5555702330196022 0.6685303876974547 0.0
v 0.5132799671593367 0.6685303876974547 0.2126075236918141
v 0.39284747919355106 0.6685303876974547 0.392847479193551
v 0.21260752369181413 0.6685303876974547 0.5132799671593367
v 3.401886537845025e-17 0.6685303876974547 0.5555702330196022
v -0.21260752369181407 0.6685303876974547 0.5132799671593367
v -0.392847479193551 0.6685303876974547 0.39284747919355106
v -0.5132799671593367 0.6685303876974547 0.21260752369181415
v -0.5555702330196022 0.6685303876974547 6.80377307569005e-17
v -0.5132799671593368 0.6685303876974547 -0.21260752369181404
v -0.3928474791935511 0.6685303876974547 -0.392847479193551
v -0.2126075236918144 0.6685303876974547 -0.5132799671593365
v -1.0205659613535074e-16 0.6685303876974547 -0.5555702330196022
v 0.2126075236918142 0.6685303876974547 -0.5132799671593367
v 0.39284747919355095 0.6685303876974547 -0.3928474791935511
v 0.5132799671593365 0.6685303876974547 -0.21260752369181443
v 0.3826834323650899 0.5761204674887133 0.0
v 0.35355339059327384 0.5761204674887133 0.1464466094067263
v 0.2705980500730986 0.5761204674887133 0.27059805007309856
v 0.1464466094067263 0.5761204674887133 0.35355339059327384
v 2.34326020266315e-17 0.5761204674887133 0.3826834323650899
v -0.14644660940672627 0.5761204674887133 0.35355339059327384
v -0.27059805007309856 0.5761204674887133 0.2705980500730986
v -0.35355339059327384 0.5761204674887133 0.14644660940672632
v -0.3826834323650899 0.5761204674887133 4.6865204053263e-17
v -0.3535533905932739 0.5761204674887133 -0.14644660940672624
v -0.2705980500730986 0.5761204674887133 -0.27059805007309856
v -0.1464466094067265 0.5761204674887133 -0.3535533905932738
v -7.029780607989449e-17 0.5761204674887133 -0.3826834323650899
v 0.14644660940672638 0.5761204674887133 -0.35355339059327384
v 0.2705980500730985 0.5761204674887133 -0.2705980500730986
v 0.3535533905932738 0.5761204674887133 -0.14644660940672652
v 0.1950903220161286 0.5192147195967696 0.0
v 0.1802399555017373 0.5192147195967696 0.07465783405034274
v 0.13794968964147175 0.5192147195967696 0.13794968964147172
v 0.07465783405034275 0.5192147195967696 0.1802399555017373
v 1.1945836920083915e-17 0.5192147195967696 0.1950903220161286
v -0.07465783405034272 0.5192147195967696 0.1802399555017373
v -0.13794968964147172 0.5192147195967696 0.13794968964147175
v -0.1802399555017373 0.5192147195967696 0.07465783405034276
v -0.1950903220161286 0.5192147195967696 2.389167384016783e-17
v -0.18023995550173733 0.5192147195967696 -0.07465783405034272
v -0.13794968964147178 0.5192147195967696 -0.13794968964147172
v -0.07465783405034285 0.5192147195967696 -0.18023995550173724
v -3.583751076025174e-17 0.5192147195967696 -0.1950903220161286
v 0.07465783405034278 0.5192147195967696 -0.18023995550173727
v 0.13794968964147172 0.5192147195967696 -0.13794968964147178
v 0.18023995550173724 0.5192147195967696 -0.07465783405034286
v 1.2246467991473532e-16 0.5 0.0
v 1.1314261122877003e-16 0.5 4.6865204053262986e-17
v 8.659560562354934e-17 0.5 8.659560562354932e-17
v 4.686520405326299e-17 0.5 1.1314261122877003e-16
v 7.498798913309288e-33 0.5 1.2246467991473532e-16
v -4.6865204053262974e-17 0.5 1.1314261122877003e-16
v -8.659560562354932e-17 0.5 8.659560562354934e-17
v -1.1314261122877003e-16 0.5 4.6865204053263e-17
v -1.2246467991473532e-16 0.5 1.4997597826618576e-32
v -1.1314261122877005e-16 0.5 -4.686520405326297e-17
v -8.659560562354935e-17 0.5 -8.659560562354932e-17
v -4.6865204053263054e-17 0.5 -1.1314261122877e-16
v -2.2496396739927864e-32 0.5 -1.2246467991473532e-16
v 4.686520405326301e-17 0.5 -1.1314261122877003e-16
v 8.65956056235493e-17 0.5 -8.659560562354935e-17
v 1.1314261122877e-16 0.5 -4.686520405326306e-17
v 1.2 0 0.0
v 1.2 0.5 0.0
v 1.1086554390135441 0 0.4592201188381077
v 1.1086554390135441 0.5 0.4592201188381077
v 0.848528137423857 0 0.8485281374238569
v 0.848528137423857 0.5 0.8485281374238569
v 0.45922011883810776 0 1.1086554390135441
v 0.45922011883810776 0.5 1.1086554390135441
v 7.347880794884119e-17 0 1.2
v 7.347880794884119e-17 0.5 1.2
v -0.45922011883810765 0 1.1086554390135441
v -0.45922011883810765 0.5 1.1086554390135441
v -0.8485281374238569 0 0.848528137423857
v -0.8485281374238569 0.5 0.848528137423857
v -1.1086554390135441 0 0.45922011883810787
v -1.1086554390135441 0.5 0.45922011883810787
v -1.2 0 1.4695761589768238e-16
v -1.2 0.5 1.4695761589768238e-16
v -1.1086554390135441 0 -0.4592201188381076
v -1.1086554390135441 0.5 -0.4592201188381076
v -0.8485281374238572 0 -0.8485281374238569
v -0.8485281374238572 0.5 -0.8485281374238569
v -0.45922011883810837 0 -1.1086554390135437
v -0.45922011883810837 0.5 -1.1086554390135437
v -2.2043642384652356e-16 0 -1.2
v -2.2043642384652356e-16 0.5 -1.2
v 0.459220118838108 0 -1.108655439013544
v 0.459220118838108 0.5 -1.108655439013544
v 0.8485281374238568 0 -0.8485281374238572
v 0.8485281374238568 0.5 -0.8485281374238572
v 1.1086554390135437 0 -0.4592201188381084
v 1.1086554390135437 0.5 -0.4592201188381084
f 1 2 18
f 1 18 17
f 2 3 19
f 2 19 18
f 3 4 20
f 3 20 19
f 4 5 21
f 4 21 20
f 5 6 22
f 5 22 21
f 6 7 23
f 6 23 22
f 7 8 24
f 7 24 23
f 8 9 25
f 8 25 24
f 9 10 26
f 9 26 25
f 10 11 27
f 10 27 26
f 11 12 28
f 11 28 27
f 12 13 29
f 12 29 28
f 13 14 30
f 13 30 29
f 14 15 31
f 14 31 30
f 15 16 32
f 15 32 31
f 16 1 17
f 16 17 32
f 17 18 34
f 17 34 33
f 18 19 35
f 18 35 34
f 19 20 36
f 19 36 35
f 20 21 37
f 20 37 36
f 21 22 38
f 21 38 37
f 22 23 39
f 22 39 38
f 23 24 40
f 23 40 39
f 24 25 41
f 24 41 40
f 25 26 42
f 25 42 41
f 26 27 43
f 26 43 42
f 27 28 44
f 27 44 43
f 28 29 45
f 28 45 44
f 29 30 46
f 29 46 45
f 30 31 47
f 30 47 46
f 31 32 48
f 31 48 47
f 32 17 33
f 32 33 48
f 33 34 50
f 33 50 49
f 34 35 51
f 34 51 50
f 35 36 52
f 35 52 51
f 36 37 53
f 36 53 52
f 37 38 54
f 37 54 53
f 38 39 55
f 38 55 54
f 39 40 56
f 39 56 55
f 40 41 57
f 40 57 56
f 41 42 58
f 41 58 57
f 42 43 59
f 42 59 58
f 43 44 60
f 43 60 59
f 44 45 61
f 44 61 60
f 45 46 62
f 45 62 61
f 46 47 63
f 46 63 62
f 47 48 64
f 47 64 63
f 48 33 49
f 48 49 64
f 49 50 66
f 49 66 65
f 50 51 67
f 50 67 66
f 51 52 68
f 51 68 67
f 52 53 69
f 52 69 68
f 53 54 70
f 53 70 69
f 54 55 71
f 54 71 70
f 55 56 72
f 55 72 71
f 56 57 73
f 56 73 72
f 57 58 74
f 57 74 73
f 58 59 75
f 58 75 74
f 59 60 76
f 59 76 75
f 60 61 77
f 60 77 76
f 61 62 78
f 61 78 77
f 62 63 79
f 62 79 78
f 63 64 80
f 63 80 79
f 64 49 65
f 64 65 80
f 65 66 82
f 65 82 81
f 66 67 83
f 66 83 82
f 67 68 84
f 67 84 83
f 68 69 85
f 68 85 84
f 69 70 86
f 69 86 85
f 70 71 87
f 70 87 86
f 71 72 88
f 71 88 87
f 72 73 89
f 72 89 88
f 73 74 90
f 73 90 89
f 74 75 91
f 74 91 90
f 75 76 92
f 75 92 91
f 76 77 93
f 76 93 92
f 77 78 94
f 77 94 93
f 78 79 95
f 78 95 94
f 79 80 96
f 79 96 95
f 80 65 81
f 80 81 96
f 81 82 98
f 81 98 97
f 82 83 99
f 82 99 98
f 83 84 100
f 83 100 99
f 84 85 101
f 84 101 100
f 85 86 102
f 85 102 101
f 86 87 103
f 86 103 102
f 87 88 104
f 87 104 103
f 88 89 105
f 88 105 104
f 89 90 106
f 89 106 105
f 90 91 107
f 90 107 106
f 91 92 108
f 91 108 107
f 92 93 109
f 92 109 108
f 93 94 110
f 93 110 109
f 94 95 111
f 94 111 110
f 95 96 112
f 95 112 111
f 96 81 97
f 96 97 112
f 97 98 114
f 97 114 113
f 98 99 115
f 98 115 114
f 99 100 116
f 99 116 115
f 100 101 117
f 100 117 116
f 101 102 118
f 101 118 117
f 102 103 119
f 102 119 118
f 103 104 120
f 103 120 119
f 104 105 121
f 104 121 120
f 105 106 122
f 105 122 121
f 106 107 123
f 106 123 122
f 107 108 124
f 107 124 123
f 108 109 125
f 108 125 124
f 109 110 126
f 109 126 125
f 110 111 127
f 110 127 126
f 111 112 128
f 111 128 127
f 112 97 113
f 112 113 128
f 113 114 130
f 113 130 129
f 114 115 131
f 114 131 130
f 115 116 132
f 115 132 131
f 116 117 133
f 116 133 132
f 117 118 134
f 117 134 133
f 118 119 135
f 118 135 134
f 119 120 136
f 119 136 135
f 120 121 137
f 120 137 136
f 121 122 138
f 121 138 137
f 122 123 139
f 122 139 138
f 123 124 140
f 123 140 139
f 124 125 141
f 124 141 140
f 125 126 142
f 125 142 141
f 126 127 143
f 126 143 142
f 127 128 144
f 127 144 143
f 128 113 129
f 128 129 144
f 129 130 146
f 129 146 145
f 130 131 147
f 130 147 146
f 131 132 148
f 131 148 147
f 132 133 149
f 132 149 148
f 133 134 150
f 133 150 149
f 134 135 151
f 134 151 150
f 135 136 152
f 135 152 151
f 136 137 153
f 136 153 152
f 137 138 154
f 137 154 153
f 138 139 155
f 138 155 154
f 139 140 156
f 139 156 155
f 140 141 157
f 140 157 156
f 141 142 158
f 141 158 157
f 142 143 159
f 142 159 158
f 143 144 160
f 143 160 159
f 144 129 145
f 144 145 160
f 145 146 162
f 145 162 161
f 146 147 163
f 146 163 162
f 147 148 164
f 147 164 163
f 148 149 165
f 148 165 164
f 149 150 166
f 149 166 165
f 150 151 167
f 150 167 166
f 151 152 168
f 151 168 167
f 152 153 169
f 152 169 168
f 153 154 170
f 153 170 169
f 154 155 171
f 154 171 170
f 155 156 172
f 155 172 171
f 156 157 173
f 156 173 172
f 157 158 174
f 157 174 173
f 158 159 175
f 158 175 174
f 159 160 176
f 159 176 175
f 160 145 161
f 160 161 176
f 161 162 178
f 161 178 177
f 162 163 179
f 162 179 178
f 163 164 180
f 163 180 179
f 164 165 181
f 164 181 180
f 165 166 182
f 165 182 181
f 166 167 183
f 166 183 182
f 167 168 184
f 167 184 183
f 168 169 185
f 168 185 184
f 169 170 186
f 169 186 185
f 170 171 187
f 170 187 186
f 171 172 188
f 171 188 187
f 172 173 189
f 172 189 188
f 173 174 190
f 173 190 189
f 174 175 191
f 174 191 190
f 175 176 192
f 175 192 191
f 176 161 177
f 176 177 192
f 177 178 194
f 177 194 193
f 178 179 195
f 178 195 194
f 179 180 196
f 179 196 195
f 180 181 197
f 180 197 196
f 181 182 198
f 181 198 197
f 182 183 199
f 182 199 198
f 183 184 200
f 183 200 199
f 184 185 201
f 184 201 200
f 185 186 202
f 185 202 201
f 186 187 203
f 186 203 202
f 187 188 204
f 187 204 203
f 188 189 205
f 188 205 204
f 189 190 206
f 189 206 205
f 190 191 207
f 190 207 206
f 191 192 208
f 191 208 207
f 192 177 193
f 192 193 208
f 193 194 210
f 193 210 209
f 194 195 211
f 194 211 210
f 195 196 212
f 195 212 211
f 196 197 213
f 196 213 212
f 197 198 214
f 197 214 213
f 198 199 215
f 198 215 214
f 199 200 216
f 199 216 215
f 200 201 217
f 200 217 216
f 201 202 218
f 201 218 217
f 202 203 219
f 202 219 218
f 203 204 220
f 203 220 219
f 204 205 221
f 204 221 220
f 205 206 222
f 205 222 221
f 206 207 223
f 206 223 222
f 207 208 224
f 207 224 223
f 208 193 209
f 208 209 224
f 209 210 226
f 209 226 225
f 210 211 227
f 210 227 226
f 211 212 228
f 211 228 227
f 212 213 229
f 212 229 228
f 213 214 230
f 213 230 229
f 214 215 231
f 214 231 230
f 215 216 232
f 215 232 231
f 216 217 233
f 216 233 232
f 217 218 234
f 217 234 233
f 218 219 235
f 218 235 234
f 219 220 236
f 219 236 235
f 220 221 237
f 220 237 236
f 221 222 238
f 221 238 237
f 222 223 239
f 222 239 238
f 223 224 240
f 223 240 239
f 224 209 225
f 224 225 240
f 225 226 242
f 225 242 241
f 226 227 243
f 226 243 242
f 227 228 244
f 227 244 243
f 228 229 245
f 228 245 244
f 229 230 246
f 229 246 245
f 230 231 247
f 230 247 246
f 231 232 248
f 231 248 247
f 232 233 249
f 232 249 248
f 233 234 250
f 233 250 249
f 234 235 251
f 234 251 250
f 235 236 252
f 235 252 251
f 236 237 253
f 236 253 252
f 237 238 254
f 237 254 253
f 238 239 255
f 238 255 254
f 239 240 256
f 239 256 255
f 240 225 241
f 240 241 256
f 241 242 258
f 241 258 257
f 242 243 259
f 242 259 258
f 243 244 260
f 243 260 259
f 244 245 261
f 244 261 260
f 245 246 262
f 245 262 261
f 246 247 263
f 246 263 262
f 247 248 264
f 247 264 263
f 248 249 265
f 248 265 264
f 249 250 266
f 249 266 265
f 250 251 267
f 250 267 266
f 251 252 268
f 251 268 267
f 252 253 269
f 252 269 268
f 253 254 270
f 253 270 269
f 254 255 271
f 254 271 270
f 255 256 272
f 255 272 271
f 256 241 257
f 256 257 272
f 273 275 276
f 273 276 274
f 275 277 278
f 275 278 276
f 277 279 280
f 277 280 278
f 279 281 282
f 279 282 280
f 281 283 284
f 281 284 282
f 283 285 286
f 283 286 284
f 285 287 288
f 285 288 286
f 287 289 290
f 287 290 288
f 289 291 292
f 289 292 290
f 291 293 294
f 291 294 292
f 293 295 296
f 293 296 294
f 295 297 298
f 295 298 296
f 297 299 300
f 297 300 298
f 299 301 302
f 299 302 300
f 301 303 304
f 301 304 302
f 303 273 274
f 303 274 304
